# xmcd CD database file
#
# Track frame offsets:
#	150
#	23220
#	43887
#	68850
#	87737
#	110825
#	133875
#	158625
#	182762
#	196575
#	218487
#	237887
#
# Disc length: 3640 seconds
#
# Revision: 3
# Processed by: cddbd v1.5.1PL2 Copyright (c) Steve Scherf et al.
# Submitted via: jetAudio 5
#
DISCID=a90e360c
DTITLE=????? - For Your Love
DYEAR=1900
DGENRE=
TTITLE0=????? - ???????
TTITLE1=????? - ??????? ???
TTITLE2=????? - ?????????????
TTITLE3=????? - ?????????
TTITLE4=????? - ???
TTITLE5=????? - ????????1962? ????
TTITLE6=????? - ?????????
TTITLE7=????? - ??????
TTITLE8=????? - ???????????
TTITLE9=????? - Every Highway Leads to You
TTITLE10=????? - ??????
TTITLE11=????? - ??? ????? ????
EXTD=GEORGE YANAGI THE BEST COLLECTION
EXTT0=
EXTT1=
EXTT2=
EXTT3=
EXTT4=
EXTT5=
EXTT6=
EXTT7=
EXTT8=
EXTT9=
EXTT10=
EXTT11=
PLAYORDER=
